<svg xmlns="http://www.w3.org/2000/svg" xmlns:xlink="http://www.w3.org/1999/xlink" width="187" height="67" version="1.1" viewBox="0 0 187 67"><title>Group</title><desc>Created with Sketch.</desc><g id="Symbols" fill="none" fill-rule="evenodd" stroke="none" stroke-width="1"><g id="ETH-Library-LAB_LOGO_negative" transform="translate(-2.000000, -7.000000)"><g id="Group"><path id="ETH-Library-LAB" fill="#FFF" d="M88.16,28 L88.16,8.02 L100.7,8.02 L100.7,12.67 L93.8,12.67 L93.8,15.67 L99.89,15.67 L99.89,19.99 L93.8,19.99 L93.8,23.35 L100.91,23.35 L100.91,28 L88.16,28 Z M108.64,28 L108.64,12.67 L103.27,12.67 L103.27,8.02 L119.74,8.02 L119.74,12.67 L114.37,12.67 L114.37,28 L108.64,28 Z M122.61,28 L122.61,8.02 L128.34,8.02 L128.34,15.4 L135.42,15.4 L135.42,8.02 L141.12,8.02 L141.12,28 L135.42,28 L135.42,20.05 L128.34,20.05 L128.34,28 L122.61,28 Z M88.28,51 L88.28,31.02 L94.04,31.02 L94.04,46.47 L101.15,46.47 L101.15,51 L88.28,51 Z M106.78,34.95 C104.95,34.95 103.69,33.57 103.69,31.98 C103.69,30.39 104.95,29.04 106.78,29.04 C108.61,29.04 109.87,30.39 109.87,31.98 C109.87,33.57 108.61,34.95 106.78,34.95 Z M104.05,51 L104.05,36.21 L109.51,36.21 L109.51,51 L104.05,51 Z M120.24,51.36 C116.55,51.36 114.27,50.58 113.28,50.16 L113.28,29.4 L118.68,29.4 L118.68,37.38 C119.34,36.69 120.57,35.85 122.22,35.85 C125.67,35.85 128.43,38.01 128.43,43.47 C128.43,48.93 124.83,51.36 120.24,51.36 Z M120.24,47.25 C121.65,47.25 122.73,46.47 122.73,43.44 C122.73,40.92 121.98,39.96 120.54,39.96 C119.58,39.96 118.95,40.5 118.68,40.83 L118.68,47.04 C118.95,47.13 119.4,47.25 120.24,47.25 Z M131.06,51 L131.06,36.21 L136.46,36.21 L136.46,37.98 C137.15,36.84 138.32,35.85 140.06,35.85 C141.29,35.85 141.98,36.09 142.4,36.33 L141.14,40.89 C140.81,40.68 140.3,40.47 139.37,40.47 C137.9,40.47 136.97,41.34 136.46,42.12 L136.46,51 L131.06,51 Z M147.94,51.36 C145.39,51.36 143.32,49.89 143.32,47.04 C143.32,43.26 147.04,41.7 151.18,41.7 L151.6,41.7 L151.6,41.25 C151.6,40.41 151.21,39.96 149.62,39.96 C147.85,39.96 146.47,40.86 145.93,41.22 L143.77,38.04 C144.76,37.17 146.98,35.85 150.31,35.85 C154.99,35.85 156.97,37.44 156.97,41.76 L156.97,45.87 C156.97,48.24 157.21,49.89 157.45,51 L152.17,51 C152.02,50.64 151.9,50.01 151.87,49.56 C151.24,50.34 149.95,51.36 147.94,51.36 Z M149.8,47.67 C150.73,47.67 151.24,47.28 151.6,46.98 L151.6,44.82 L151.18,44.82 C149.47,44.82 148.33,45.36 148.33,46.53 C148.33,47.25 148.87,47.67 149.8,47.67 Z M160.29,51 L160.29,36.21 L165.69,36.21 L165.69,37.98 C166.38,36.84 167.55,35.85 169.29,35.85 C170.52,35.85 171.21,36.09 171.63,36.33 L170.37,40.89 C170.04,40.68 169.53,40.47 168.6,40.47 C167.13,40.47 166.2,41.34 165.69,42.12 L165.69,51 L160.29,51 Z M175.1,58.08 C173.48,58.08 172.49,57.84 172.13,57.72 L172.91,53.52 C173.12,53.58 173.57,53.73 174.59,53.73 C176.66,53.73 177.26,52.86 177.65,51.75 L178.1,50.52 L172.58,36.21 L178.25,36.21 L180.89,44.4 L181.01,44.4 L183.2,36.21 L188.69,36.21 L182.72,52.26 C181.19,56.34 179.45,58.08 175.1,58.08 Z M88.28,74 L88.28,54.02 L94.04,54.02 L94.04,69.47 L101.15,69.47 L101.15,74 L88.28,74 Z M111.34,66.71 L115.39,66.71 L114.31,63.56 C113.71,61.82 113.41,60.2 113.38,60.08 L113.32,60.08 C113.29,60.2 112.96,61.85 112.39,63.56 L111.34,66.71 Z M103.12,74 L110.74,54.02 L116.23,54.02 L124.15,74 L117.91,74 L116.95,71.18 L109.84,71.18 L108.91,74 L103.12,74 Z M127.02,74 L127.02,54.02 L134.79,54.02 C138.48,54.02 141.99,55.1 141.99,59 C141.99,61.79 140.61,63.17 138.45,63.71 L138.45,63.77 C140.76,64.1 142.77,65.57 142.77,68.51 C142.77,72.56 139.32,74 134.7,74 L127.02,74 Z M132.66,69.74 L134.43,69.74 C135.96,69.74 137.01,69.23 137.01,67.79 C137.01,66.38 136.14,65.84 134.61,65.84 L132.66,65.84 L132.66,69.74 Z M132.66,61.97 L134.01,61.97 C135.69,61.97 136.41,61.37 136.41,60.08 C136.41,58.85 135.66,58.28 134.13,58.28 L132.66,58.28 L132.66,61.97 Z"/><polygon id="Path-Copy" fill="#989EA5" points="57 1 21 19.247 38.438 69" transform="translate(39.000000, 35.000000) rotate(55.000000) translate(-39.000000, -35.000000)"/><path id="Path" fill="#FFF" fill-rule="nonzero" d="M58.6529322,7.64007785 L59.5,8 L59.5,48.6931206 L59.1155928,49.1795754 L3.11559278,62.4864548 L2.65293221,61.6400779 L58.6529322,7.64007785 Z M4.66310546,61.0908858 L58.5,48.2980097 L58.5,9.17673751 L4.66310546,61.0908858 Z"/></g></g></g></svg>