<?xml version="1.0" standalone="no"?>
<svg xmlns="http://www.w3.org/2000/svg" width="448" height="520" id="canvas"><polygon points="223.92304845413264,10 223.92304845413264,130 327.8460969082653,70" id="tr0" fill="none"/><polygon points="223.92304845413264,10 223.92304845413264,130 120,70" id="tr1" fill="none"/><polygon points="120,70 120,190 223.92304845413264,130" id="tr2" fill="none"/><polygon points="120,70 120,190 16.076951545867374,130" id="tr3" fill="none"/><polygon points="16.076951545867374,130 16.076951545867374,250 120,190" id="tr4" fill="none"/><polygon points="327.8460969082653,70 327.8460969082653,190 431.7691453623979,130" id="tr5" fill="none"/><polygon points="327.8460969082653,70 327.8460969082653,190 223.92304845413264,130" id="tr6" fill="none"/><polygon points="223.92304845413264,130 223.92304845413264,250 327.8460969082653,190" id="tr7" fill="none"/><polygon points="223.92304845413264,130 223.92304845413264,250 120.00000000000001,190" id="tr8" fill="rgb(120,191,68)"/><polygon points="120.00000000000001,190 120.00000000000001,310 223.92304845413264,250" id="tr9" fill="rgb(117,192,203)"/><polygon points="120.00000000000001,190 120.00000000000001,310 16.076951545867388,250" id="tr10" fill="none"/><polygon points="16.076951545867388,250 16.076951545867388,370 120.00000000000001,310" id="tr11" fill="none"/><polygon points="431.7691453623979,130 431.7691453623979,250 327.8460969082653,190" id="tr12" fill="none"/><polygon points="327.8460969082653,190 327.8460969082653,310 431.7691453623979,250" id="tr13" fill="none"/><polygon points="327.8460969082653,190 327.8460969082653,310 223.92304845413264,250" id="tr14" fill="none"/><polygon points="223.92304845413264,250 223.92304845413264,370 327.8460969082653,310" id="tr15" fill="rgb(120,191,68)"/><polygon points="223.92304845413264,250 223.92304845413264,370 120.00000000000003,310" id="tr16" fill="rgb(117,192,203)"/><polygon points="120.00000000000003,310 120.00000000000003,430 223.92304845413264,370" id="tr17" fill="rgb(117,192,203)"/><polygon points="120.00000000000004,310 120.00000000000004,430 16.076951545867416,370" id="tr18" fill="rgb(120,191,68)"/><polygon points="431.7691453623979,250 431.7691453623979,370 327.8460969082653,310" id="tr19" fill="none"/><polygon points="327.8460969082653,310 327.8460969082653,430 431.7691453623979,370" id="tr20" fill="none"/><polygon points="327.8460969082653,310 327.8460969082653,430 223.92304845413264,370" id="tr21" fill="rgb(57,96,169)"/><polygon points="223.92304845413264,370 223.92304845413264,490 327.8460969082653,430" id="tr22" fill="rgb(57,96,169)"/><polygon points="223.92304845413264,370 223.92304845413264,490 120.00000000000003,430" id="tr23" fill="rgb(57,96,169)"/></svg>